{"title":"EPL.2014.08.25.Manchester City vs Liverpool FC.DANISH.720p.x264","uid":10878848,"size":4729231705,"categoryP":"video","categoryS":"hd___tv_shows","magnet":"?xt=urn:btih:6695beb48d6176d40794899b7fe25f22bc97f33d&amp;dn=EPL.2014.08.25.Manchester+City+vs+Liverpool+FC.DANISH.720p.x264&amp;tr=udp%3A%2F%2Ftracker.openbittorrent.com%3A80&amp;tr=udp%3A%2F%2Fopen.demonii.com%3A1337&amp;tr=udp%3A%2F%2Ftracker.coppersurfer.tk%3A6969&amp;tr=udp%3A%2F%2Fexodus.desync.com%3A6969","seeders":0,"leechers":1,"uploader":"z97","files":-1,"time":1409012936,"description":"                        .:L5ZOMOZ1L:                        \n                    iSB@B@B@B@B@B@B@@@MF:                   \n                vM@B@@@O5r:.    ..:rFM@B@B@M7               \n             rB@B@BL.                   ,1@@B@Mi            \n           L@B@Br                           vB@B@7          \n         vB@B0     @B:                        .8@@@r        \n        @B@0       B@:                          .O@@@       \n      7@B@,        @@ur1P8OB@@B@MMZPu7,           :@B@i     \n     S@BG       :jNB@@@B@B@B@B@B@B@@@B@B@0r         BB@j    \n    P@B1           @B: ,j@B@MMOOOMOMOMM@B@B@0.       NB@U   \n   j@B1            B@,    .O@BM8O8OOOOOOMOBB@BX       NB@7  \n  :@BO             @Bi      7@BMOOOOOO8OOOOMM@B@       @B@  \n  @B@              B@:       v@MM8O8O8O8O8O8OOBB8       @B@ \n :B@7              @Bi        B@OOOO8OOO8OOMOOO@B,      u@B \n Z@B               B@:        0BM8O8OOO8OOOOO8MM@F       @@L\n @@0               @Bi        0@OOOOOO8O8OOOOO8MBM       MBZ\njB@r               B@:        @BM8O8O8O8O8O8O8OM@O       j@8\n0@B:               @Bi       rBM8O8O8O8MOMOOOMO@Bi       7BM\nEB@:               B@:      iB@OM8O8O8O8MOMOBB@@v        r@O\nL@Bv               @@:     ZB@OMOMOMOMOMM@@@B@P          UBO\n.B@0               B@.  :Z@BBMMMBM@B@B@B@B@ki            O@N\n Z@@               @Brr@@@B@@@B@@@B@B0jr.                @BL\n ,@BL              B@@@B@B@B81vi,                       5B@ \n  B@@             .@B@BOr.                              B@M \n  ,B@O            @B@G                                 B@B  \n   LB@S           B@2                                 Z@Br  \n    SB@F          @@                                 Z@@Y   \n     1@@O         BL                                B@Bv    \n      rB@@:       M7                              rB@B:     \n        B@BM      ,J                            .@@@O       \n         r@B@Z,    .                          :M@@@:        \n           vB@B@L                           Y@@@Br          \n             :M@@B@2:                   ik@@@@8:            \n                iOB@@@@B5v::.. ..::vFBB@@@BZi               \n                    .;5O@B@B@B@B@B@B@O1i.                   \n\n\n\n                       RELEASE NOTES                        \n------------------------------------------------------------\n\n      Manchester City vs Liverpool FC Aug 25 - 2014 \n\t\t\t\nYear...........................: 2014\nGenre..........................: Premier League\nSource.........................: DVB-C\nSpeak..........................: Danish commentary\n\nTested and working on..........: WD TV Live\n\n\n                       RELEASE INFORMATION                  \n------------------------------------------------------------\n\nVideo\nID                             : 1\nFormat                         : AVC\nFormat/Info                    : Advanced Video Codec\nFormat profile                 : &lt;a class=&quot;__cf_email__&quot; href=&quot;/cdn-cgi/l/email-protection&quot; data-cfemail=&quot;99d1f0fef1d9d5adb7a8&quot;&gt;[email&amp;#160;protected]&lt;/a&gt;&lt;script cf-hash='f9e31' type=&quot;text/javascript&quot;&gt;\n/* &lt;![CDATA[ */!function(){try{var t=&quot;currentScript&quot;in document?document.currentScript:function(){for(var t=document.getElementsByTagName(&quot;script&quot;),e=t.length;e--;)if(t[e].getAttribute(&quot;cf-hash&quot;))return t[e]}();if(t&amp;&amp;t.previousSibling){var e,r,n,i,c=t.previousSibling,a=c.getAttribute(&quot;data-cfemail&quot;);if(a){for(e=&quot;&quot;,r=parseInt(a.substr(0,2),16),n=2;a.length-n;n+=2)i=parseInt(a.substr(n,2),16)^r,e+=String.fromCharCode(i);e=document.createTextNode(e),c.parentNode.replaceChild(e,c)}}}catch(u){}}();/* ]]&gt; */&lt;/script&gt;\nFormat settings, CABAC         : Yes\nFormat settings, ReFrames      : 4 frames\nCodec ID                       : V_MPEG4/ISO/AVC\nDuration                       : 49mn 52s\nBit rate                       : 5 379 Kbps\nWidth                          : 1 280 pixels\nHeight                         : 720 pixels\nDisplay aspect ratio           : 16:9\nFrame rate mode                : Constant\nFrame rate                     : 25.000 fps\nColor space                    : YUV\nChroma subsampling             : 4:2:0\nBit depth                      : 8 bits\nScan type                      : Progressive\nBits/(Pixel*Frame)             : 0.233\nStream size                    : 1.87 GiB (91%)\nWriting library                : x264 core 142 r2431 ac76440\n\n\nAudio\nID                             : 2\nFormat                         : AC-3\nFormat/Info                    : Audio Coding 3\nMode extension                 : CM (complete main)\nFormat settings, Endianness    : Big\nCodec ID                       : A_AC3\nDuration                       : 49mn 52s\nBit rate mode                  : Constant\nBit rate                       : 384 Kbps\nChannel(s)                     : 6 channels\nChannel positions              : Front: L C R, Side: L R, LFE\nSampling rate                  : 48.0 KHz\nBit depth                      : 16 bits\nCompression mode               : Lossy\nStream size                    : 137 MiB (7%)\nTitle                          : Surround\nLanguage                       : Danish\nDefault                        : Yes\nForced                         : No","torrent":{"xt":"urn:btih:6695beb48d6176d40794899b7fe25f22bc97f33d","amp;dn":"EPL.2014.08.25.Manchester+City+vs+Liverpool+FC.DANISH.720p.x264","amp;tr":["udp%3A%2F%2Ftracker.openbittorrent.com%3A80","udp%3A%2F%2Fopen.demonii.com%3A1337","udp%3A%2F%2Ftracker.coppersurfer.tk%3A6969","udp%3A%2F%2Fexodus.desync.com%3A6969"],"infoHash":"6695beb48d6176d40794899b7fe25f22bc97f33d","infoHashBuffer":{"type":"Buffer","data":[102,149,190,180,141,97,118,212,7,148,137,155,127,226,95,34,188,151,243,61]},"announce":[],"urlList":[]}}